<svg width="172" height="380" viewBox="0 0 172 380" fill="none" xmlns="http://www.w3.org/2000/svg">
<path d="M21.2461 186.24C15.7448 186.24 11.2168 184.294 7.66211 180.4C4.10742 176.507 2.33008 172.148 2.33008 167.324V18.916C2.33008 13.3301 4.27669 8.80208 8.16992 5.33203C12.0632 1.77734 16.4219 0 21.2461 0C26.5781 0 31.0638 1.81966 34.7031 5.45898C38.4271 9.09831 40.2891 13.584 40.2891 18.916V91.0254H22.8965V18.916C22.8965 17.985 22.3464 17.4349 21.2461 17.2656C20.3997 17.2656 19.8919 17.8158 19.7227 18.916V167.324C19.7227 168.171 20.2305 168.678 21.2461 168.848C22.1771 168.848 22.7272 168.34 22.8965 167.324V95.0879H40.2891V167.324C40.2891 172.826 38.3424 177.354 34.4492 180.908C30.556 184.463 26.1549 186.24 21.2461 186.24Z" fill="#5F00EC"/>
<path d="M62.3789 379.963C56.8776 379.963 52.3496 378.016 48.7949 374.123C45.2402 370.23 43.4629 365.871 43.4629 361.047V18.916C43.4629 13.3301 45.4095 8.80208 49.3027 5.33203C53.196 1.77734 57.5547 0 62.3789 0C67.7109 0 72.1966 1.81966 75.8359 5.45898C78.375 7.99805 79.9408 10.5794 80.5332 13.2031C81.1256 15.8268 81.4219 19.2122 81.4219 23.3594V361.047C81.4219 366.548 79.4753 371.076 75.582 374.631C71.6888 378.186 67.2878 379.963 62.3789 379.963ZM62.3789 360.793C63.3099 360.793 63.86 360.243 64.0293 359.143V20.9473C64.0293 20.0163 63.4792 19.5085 62.3789 19.4238C61.5326 19.4238 61.0247 19.9316 60.8555 20.9473V359.143C60.8555 359.989 61.3633 360.539 62.3789 360.793Z" fill="#5F00EC"/>
<path d="M103.766 184.463H84.5957V2.03125H103.893C109.14 2.03125 113.499 3.89323 116.969 7.61719C120.693 11.2565 122.555 15.6999 122.555 20.9473V165.42C122.555 171.006 120.65 175.534 116.842 179.004C113.118 182.474 108.759 184.294 103.766 184.463ZM103.639 167.07C104.57 167.07 105.12 166.52 105.289 165.42V20.9473C105.289 20.0163 104.739 19.4661 103.639 19.2969H101.988V167.07H103.639Z" fill="#5F00EC"/>
<path d="M171.432 184.463H152.262L151.119 131.523H145.279L144.137 184.463H124.967L133.98 2.03125H162.545L171.432 184.463ZM150.738 115.527L149.088 38.4668H147.438L145.66 115.527H150.738Z" fill="#5F00EC"/>
<path d="M21.7008 378.336H2.40391V196.031H21.4469C26.2711 196.031 30.6298 197.851 34.523 201.49C38.4163 205.045 40.3629 209.531 40.3629 214.947V272.965C40.3629 273.388 40.2359 274.234 39.982 275.504C39.8128 276.773 39.2203 278.085 38.2047 279.439C36.0888 281.555 34.2268 282.74 32.6188 282.994V283.502C34.4807 283.671 36.5543 285.025 38.8395 287.564C39.4319 288.58 39.8128 289.553 39.982 290.484C40.2359 291.331 40.3629 292.092 40.3629 292.77V359.42C40.3629 364.244 38.6279 368.603 35.1578 372.496C31.6878 376.389 27.2021 378.336 21.7008 378.336ZM21.4469 361.07C22.3779 361.07 22.928 360.52 23.0973 359.42V293.531C23.0973 292.77 22.6741 292.262 21.8277 292.008H19.7965V361.07H21.4469ZM21.8277 274.488C22.6741 274.234 23.0973 273.727 23.0973 272.965V214.947C23.0973 214.016 22.5471 213.466 21.4469 213.297H19.7965V274.488H21.8277ZM114.976 377.955H97.5832V298.736H94.5363L90.6008 274.234L84.7609 196.031H102.534L105.581 274.361H106.851L110.025 196.031H127.798L121.831 274.234L118.023 298.736H114.976V377.955ZM169.469 378.463H131.51V361.07L152.204 213.424H131.51V196.031H169.469V213.424L148.776 361.07H169.469V378.463Z" fill="#5F00EC"/>
</svg>
