<svg width="1279" height="728" viewBox="0 0 1279 728" fill="none" xmlns="http://www.w3.org/2000/svg">
<g clip-path="url(#clip0_200_110)" filter="url(#filter0_d_200_110)">
<rect width="1270" height="720" transform="translate(4.5)" fill="url(#paint0_linear_200_110)"/>
<path opacity="0.12" d="M24.1533 721.709C18.8636 721.709 14.5098 719.837 11.0918 716.094C7.67383 712.35 5.96484 708.159 5.96484 703.521V560.82C5.96484 555.449 7.83659 551.095 11.5801 547.759C15.3236 544.341 19.5146 542.632 24.1533 542.632C29.2803 542.632 33.5934 544.382 37.0928 547.881C40.6735 551.38 42.4639 555.693 42.4639 560.82V630.156H25.7402V560.82C25.7402 559.925 25.2113 559.396 24.1533 559.233C23.3395 559.233 22.8512 559.762 22.6885 560.82V703.521C22.6885 704.334 23.1768 704.823 24.1533 704.985C25.0485 704.985 25.5775 704.497 25.7402 703.521V634.062H42.4639V703.521C42.4639 708.81 40.5921 713.164 36.8486 716.582C33.1051 720 28.8734 721.709 24.1533 721.709ZM63.7041 721.709C58.4144 721.709 54.0605 719.837 50.6426 716.094C47.2246 712.35 45.5156 708.159 45.5156 703.521V560.82C45.5156 555.449 47.3874 551.095 51.1309 547.759C54.8743 544.341 59.0654 542.632 63.7041 542.632C68.8311 542.632 73.1442 544.382 76.6436 547.881C79.085 550.322 80.5905 552.804 81.1602 555.327C81.7298 557.85 82.0146 561.105 82.0146 565.093V703.521C82.0146 708.81 80.1429 713.164 76.3994 716.582C72.6559 720 68.4242 721.709 63.7041 721.709ZM63.7041 703.276C64.5993 703.276 65.1283 702.747 65.291 701.689V562.773C65.291 561.878 64.762 561.39 63.7041 561.309C62.8903 561.309 62.402 561.797 62.2393 562.773V701.689C62.2393 702.503 62.7275 703.032 63.7041 703.276ZM103.499 720H85.0664V544.585H103.621C108.667 544.585 112.858 546.375 116.194 549.956C119.775 553.455 121.565 557.728 121.565 562.773V701.689C121.565 707.061 119.734 711.414 116.072 714.751C112.492 718.088 108.3 719.837 103.499 720ZM103.377 703.276C104.272 703.276 104.801 702.747 104.964 701.689V562.773C104.964 561.878 104.435 561.349 103.377 561.187H101.79V703.276H103.377ZM168.562 720H150.13L149.031 669.097H143.416L142.317 720H123.885L132.552 544.585H160.018L168.562 720ZM148.665 653.716L147.078 579.619H145.491L143.782 653.716H148.665ZM189.314 719.878H170.76V544.585H189.07C193.709 544.585 197.9 546.335 201.644 549.834C205.387 553.252 207.259 557.565 207.259 562.773V618.56C207.259 618.966 207.137 619.78 206.893 621.001C206.73 622.222 206.16 623.483 205.184 624.785C203.149 626.82 201.359 627.959 199.812 628.203V628.691C201.603 628.854 203.597 630.156 205.794 632.598C206.364 633.574 206.73 634.51 206.893 635.405C207.137 636.219 207.259 636.951 207.259 637.603V701.689C207.259 706.328 205.59 710.519 202.254 714.263C198.917 718.006 194.604 719.878 189.314 719.878ZM189.07 703.276C189.965 703.276 190.494 702.747 190.657 701.689V638.335C190.657 637.603 190.25 637.114 189.437 636.87H187.483V703.276H189.07ZM189.437 620.024C190.25 619.78 190.657 619.292 190.657 618.56V562.773C190.657 561.878 190.128 561.349 189.07 561.187H187.483V620.024H189.437ZM228.499 721.709C223.209 721.709 218.855 719.837 215.438 716.094C212.02 712.35 210.311 708.159 210.311 703.521V560.82C210.311 555.449 212.182 551.095 215.926 547.759C219.669 544.341 223.86 542.632 228.499 542.632C233.626 542.632 237.939 544.382 241.438 547.881C243.88 550.322 245.385 552.804 245.955 555.327C246.525 557.85 246.81 561.105 246.81 565.093V703.521C246.81 708.81 244.938 713.164 241.194 716.582C237.451 720 233.219 721.709 228.499 721.709ZM228.499 703.276C229.394 703.276 229.923 702.747 230.086 701.689V562.773C230.086 561.878 229.557 561.39 228.499 561.309C227.685 561.309 227.197 561.797 227.034 562.773V701.689C227.034 702.503 227.522 703.032 228.499 703.276ZM277.693 719.512H260.97V643.34H258.04L254.256 619.78L248.641 544.585H265.73L268.66 619.902H269.881L272.933 544.585H290.022L284.285 619.78L280.623 643.34H277.693V719.512ZM328.841 720H292.342V703.276L312.239 561.309H292.342V544.585H328.841V561.309L308.943 703.276H328.841V720Z" fill="black"/>
<path opacity="0.12" d="M-40.8467 544.709C-46.1364 544.709 -50.4902 542.837 -53.9082 539.094C-57.3262 535.35 -59.0352 531.159 -59.0352 526.521V383.82C-59.0352 378.449 -57.1634 374.095 -53.4199 370.759C-49.6764 367.341 -45.4854 365.632 -40.8467 365.632C-35.7197 365.632 -31.4066 367.382 -27.9072 370.881C-24.3265 374.38 -22.5361 378.693 -22.5361 383.82V453.156H-39.2598V383.82C-39.2598 382.925 -39.7887 382.396 -40.8467 382.233C-41.6605 382.233 -42.1488 382.762 -42.3115 383.82V526.521C-42.3115 527.334 -41.8232 527.823 -40.8467 527.985C-39.9515 527.985 -39.4225 527.497 -39.2598 526.521V457.062H-22.5361V526.521C-22.5361 531.81 -24.4079 536.164 -28.1514 539.582C-31.8949 543 -36.1266 544.709 -40.8467 544.709ZM-1.2959 544.709C-6.58561 544.709 -10.9395 542.837 -14.3574 539.094C-17.7754 535.35 -19.4844 531.159 -19.4844 526.521V383.82C-19.4844 378.449 -17.6126 374.095 -13.8691 370.759C-10.1257 367.341 -5.93457 365.632 -1.2959 365.632C3.83105 365.632 8.14421 367.382 11.6436 370.881C14.085 373.322 15.5905 375.804 16.1602 378.327C16.7298 380.85 17.0146 384.105 17.0146 388.093V526.521C17.0146 531.81 15.1429 536.164 11.3994 539.582C7.65592 543 3.42415 544.709 -1.2959 544.709ZM-1.2959 526.276C-0.400716 526.276 0.128255 525.747 0.291016 524.689V385.773C0.291016 384.878 -0.237956 384.39 -1.2959 384.309C-2.1097 384.309 -2.59798 384.797 -2.76074 385.773V524.689C-2.76074 525.503 -2.27246 526.032 -1.2959 526.276ZM38.499 543H20.0664V367.585H38.6211C43.6667 367.585 47.8577 369.375 51.1943 372.956C54.7751 376.455 56.5654 380.728 56.5654 385.773V524.689C56.5654 530.061 54.7344 534.414 51.0723 537.751C47.4915 541.088 43.3005 542.837 38.499 543ZM38.377 526.276C39.2721 526.276 39.8011 525.747 39.9639 524.689V385.773C39.9639 384.878 39.4349 384.349 38.377 384.187H36.79V526.276H38.377ZM103.562 543H85.1299L84.0312 492.097H78.416L77.3174 543H58.8848L67.5518 367.585H95.0176L103.562 543ZM83.665 476.716L82.0781 402.619H80.4912L78.7822 476.716H83.665ZM124.314 542.878H105.76V367.585H124.07C128.709 367.585 132.9 369.335 136.644 372.834C140.387 376.252 142.259 380.565 142.259 385.773V441.56C142.259 441.966 142.137 442.78 141.893 444.001C141.73 445.222 141.16 446.483 140.184 447.785C138.149 449.82 136.359 450.959 134.812 451.203V451.691C136.603 451.854 138.597 453.156 140.794 455.598C141.364 456.574 141.73 457.51 141.893 458.405C142.137 459.219 142.259 459.951 142.259 460.603V524.689C142.259 529.328 140.59 533.519 137.254 537.263C133.917 541.006 129.604 542.878 124.314 542.878ZM124.07 526.276C124.965 526.276 125.494 525.747 125.657 524.689V461.335C125.657 460.603 125.25 460.114 124.437 459.87H122.483V526.276H124.07ZM124.437 443.024C125.25 442.78 125.657 442.292 125.657 441.56V385.773C125.657 384.878 125.128 384.349 124.07 384.187H122.483V443.024H124.437ZM163.499 544.709C158.209 544.709 153.855 542.837 150.438 539.094C147.02 535.35 145.311 531.159 145.311 526.521V383.82C145.311 378.449 147.182 374.095 150.926 370.759C154.669 367.341 158.86 365.632 163.499 365.632C168.626 365.632 172.939 367.382 176.438 370.881C178.88 373.322 180.385 375.804 180.955 378.327C181.525 380.85 181.81 384.105 181.81 388.093V526.521C181.81 531.81 179.938 536.164 176.194 539.582C172.451 543 168.219 544.709 163.499 544.709ZM163.499 526.276C164.394 526.276 164.923 525.747 165.086 524.689V385.773C165.086 384.878 164.557 384.39 163.499 384.309C162.685 384.309 162.197 384.797 162.034 385.773V524.689C162.034 525.503 162.522 526.032 163.499 526.276ZM212.693 542.512H195.97V466.34H193.04L189.256 442.78L183.641 367.585H200.73L203.66 442.902H204.881L207.933 367.585H225.022L219.285 442.78L215.623 466.34H212.693V542.512ZM263.841 543H227.342V526.276L247.239 384.309H227.342V367.585H263.841V384.309L243.943 526.276H263.841V543Z" fill="black"/>
<path opacity="0.12" d="M24.1533 363.709C18.8636 363.709 14.5098 361.837 11.0918 358.094C7.67383 354.35 5.96484 350.159 5.96484 345.521V202.82C5.96484 197.449 7.83659 193.095 11.5801 189.759C15.3236 186.341 19.5146 184.632 24.1533 184.632C29.2803 184.632 33.5934 186.382 37.0928 189.881C40.6735 193.38 42.4639 197.693 42.4639 202.82V272.156H25.7402V202.82C25.7402 201.925 25.2113 201.396 24.1533 201.233C23.3395 201.233 22.8512 201.762 22.6885 202.82V345.521C22.6885 346.334 23.1768 346.823 24.1533 346.985C25.0485 346.985 25.5775 346.497 25.7402 345.521V276.062H42.4639V345.521C42.4639 350.81 40.5921 355.164 36.8486 358.582C33.1051 362 28.8734 363.709 24.1533 363.709ZM63.7041 363.709C58.4144 363.709 54.0605 361.837 50.6426 358.094C47.2246 354.35 45.5156 350.159 45.5156 345.521V202.82C45.5156 197.449 47.3874 193.095 51.1309 189.759C54.8743 186.341 59.0654 184.632 63.7041 184.632C68.8311 184.632 73.1442 186.382 76.6436 189.881C79.085 192.322 80.5905 194.804 81.1602 197.327C81.7298 199.85 82.0146 203.105 82.0146 207.093V345.521C82.0146 350.81 80.1429 355.164 76.3994 358.582C72.6559 362 68.4242 363.709 63.7041 363.709ZM63.7041 345.276C64.5993 345.276 65.1283 344.747 65.291 343.689V204.773C65.291 203.878 64.762 203.39 63.7041 203.309C62.8903 203.309 62.402 203.797 62.2393 204.773V343.689C62.2393 344.503 62.7275 345.032 63.7041 345.276ZM103.499 362H85.0664V186.585H103.621C108.667 186.585 112.858 188.375 116.194 191.956C119.775 195.455 121.565 199.728 121.565 204.773V343.689C121.565 349.061 119.734 353.414 116.072 356.751C112.492 360.088 108.3 361.837 103.499 362ZM103.377 345.276C104.272 345.276 104.801 344.747 104.964 343.689V204.773C104.964 203.878 104.435 203.349 103.377 203.187H101.79V345.276H103.377ZM168.562 362H150.13L149.031 311.097H143.416L142.317 362H123.885L132.552 186.585H160.018L168.562 362ZM148.665 295.716L147.078 221.619H145.491L143.782 295.716H148.665ZM189.314 361.878H170.76V186.585H189.07C193.709 186.585 197.9 188.335 201.644 191.834C205.387 195.252 207.259 199.565 207.259 204.773V260.56C207.259 260.966 207.137 261.78 206.893 263.001C206.73 264.222 206.16 265.483 205.184 266.785C203.149 268.82 201.359 269.959 199.812 270.203V270.691C201.603 270.854 203.597 272.156 205.794 274.598C206.364 275.574 206.73 276.51 206.893 277.405C207.137 278.219 207.259 278.951 207.259 279.603V343.689C207.259 348.328 205.59 352.519 202.254 356.263C198.917 360.006 194.604 361.878 189.314 361.878ZM189.07 345.276C189.965 345.276 190.494 344.747 190.657 343.689V280.335C190.657 279.603 190.25 279.114 189.437 278.87H187.483V345.276H189.07ZM189.437 262.024C190.25 261.78 190.657 261.292 190.657 260.56V204.773C190.657 203.878 190.128 203.349 189.07 203.187H187.483V262.024H189.437ZM228.499 363.709C223.209 363.709 218.855 361.837 215.438 358.094C212.02 354.35 210.311 350.159 210.311 345.521V202.82C210.311 197.449 212.182 193.095 215.926 189.759C219.669 186.341 223.86 184.632 228.499 184.632C233.626 184.632 237.939 186.382 241.438 189.881C243.88 192.322 245.385 194.804 245.955 197.327C246.525 199.85 246.81 203.105 246.81 207.093V345.521C246.81 350.81 244.938 355.164 241.194 358.582C237.451 362 233.219 363.709 228.499 363.709ZM228.499 345.276C229.394 345.276 229.923 344.747 230.086 343.689V204.773C230.086 203.878 229.557 203.39 228.499 203.309C227.685 203.309 227.197 203.797 227.034 204.773V343.689C227.034 344.503 227.522 345.032 228.499 345.276ZM277.693 361.512H260.97V285.34H258.04L254.256 261.78L248.641 186.585H265.73L268.66 261.902H269.881L272.933 186.585H290.022L284.285 261.78L280.623 285.34H277.693V361.512ZM328.841 362H292.342V345.276L312.239 203.309H292.342V186.585H328.841V203.309L308.943 345.276H328.841V362Z" fill="black"/>
<path opacity="0.12" d="M-40.8467 183.709C-46.1364 183.709 -50.4902 181.837 -53.9082 178.094C-57.3262 174.35 -59.0352 170.159 -59.0352 165.521V22.8203C-59.0352 17.4492 -57.1634 13.0954 -53.4199 9.75879C-49.6764 6.34082 -45.4854 4.63184 -40.8467 4.63184C-35.7197 4.63184 -31.4066 6.38151 -27.9072 9.88086C-24.3265 13.3802 -22.5361 17.6934 -22.5361 22.8203V92.1562H-39.2598V22.8203C-39.2598 21.9251 -39.7887 21.3962 -40.8467 21.2334C-41.6605 21.2334 -42.1488 21.7624 -42.3115 22.8203V165.521C-42.3115 166.334 -41.8232 166.823 -40.8467 166.985C-39.9515 166.985 -39.4225 166.497 -39.2598 165.521V96.0625H-22.5361V165.521C-22.5361 170.81 -24.4079 175.164 -28.1514 178.582C-31.8949 182 -36.1266 183.709 -40.8467 183.709ZM-1.2959 183.709C-6.58561 183.709 -10.9395 181.837 -14.3574 178.094C-17.7754 174.35 -19.4844 170.159 -19.4844 165.521V22.8203C-19.4844 17.4492 -17.6126 13.0954 -13.8691 9.75879C-10.1257 6.34082 -5.93457 4.63184 -1.2959 4.63184C3.83105 4.63184 8.14421 6.38151 11.6436 9.88086C14.085 12.3223 15.5905 14.8044 16.1602 17.3271C16.7298 19.8499 17.0146 23.1051 17.0146 27.0928V165.521C17.0146 170.81 15.1429 175.164 11.3994 178.582C7.65592 182 3.42415 183.709 -1.2959 183.709ZM-1.2959 165.276C-0.400716 165.276 0.128255 164.747 0.291016 163.689V24.7734C0.291016 23.8783 -0.237956 23.39 -1.2959 23.3086C-2.1097 23.3086 -2.59798 23.7969 -2.76074 24.7734V163.689C-2.76074 164.503 -2.27246 165.032 -1.2959 165.276ZM38.499 182H20.0664V6.58496H38.6211C43.6667 6.58496 47.8577 8.37533 51.1943 11.9561C54.7751 15.4554 56.5654 19.7279 56.5654 24.7734V163.689C56.5654 169.061 54.7344 173.414 51.0723 176.751C47.4915 180.088 43.3005 181.837 38.499 182ZM38.377 165.276C39.2721 165.276 39.8011 164.747 39.9639 163.689V24.7734C39.9639 23.8783 39.4349 23.3493 38.377 23.1865H36.79V165.276H38.377ZM103.562 182H85.1299L84.0312 131.097H78.416L77.3174 182H58.8848L67.5518 6.58496H95.0176L103.562 182ZM83.665 115.716L82.0781 41.6191H80.4912L78.7822 115.716H83.665ZM124.314 181.878H105.76V6.58496H124.07C128.709 6.58496 132.9 8.33464 136.644 11.834C140.387 15.252 142.259 19.5651 142.259 24.7734V80.5596C142.259 80.9665 142.137 81.7803 141.893 83.001C141.73 84.2217 141.16 85.4831 140.184 86.7852C138.149 88.8197 136.359 89.959 134.812 90.2031V90.6914C136.603 90.8542 138.597 92.1562 140.794 94.5977C141.364 95.5742 141.73 96.5101 141.893 97.4053C142.137 98.2191 142.259 98.9515 142.259 99.6025V163.689C142.259 168.328 140.59 172.519 137.254 176.263C133.917 180.006 129.604 181.878 124.314 181.878ZM124.07 165.276C124.965 165.276 125.494 164.747 125.657 163.689V100.335C125.657 99.6025 125.25 99.1143 124.437 98.8701H122.483V165.276H124.07ZM124.437 82.0244C125.25 81.7803 125.657 81.292 125.657 80.5596V24.7734C125.657 23.8783 125.128 23.3493 124.07 23.1865H122.483V82.0244H124.437ZM163.499 183.709C158.209 183.709 153.855 181.837 150.438 178.094C147.02 174.35 145.311 170.159 145.311 165.521V22.8203C145.311 17.4492 147.182 13.0954 150.926 9.75879C154.669 6.34082 158.86 4.63184 163.499 4.63184C168.626 4.63184 172.939 6.38151 176.438 9.88086C178.88 12.3223 180.385 14.8044 180.955 17.3271C181.525 19.8499 181.81 23.1051 181.81 27.0928V165.521C181.81 170.81 179.938 175.164 176.194 178.582C172.451 182 168.219 183.709 163.499 183.709ZM163.499 165.276C164.394 165.276 164.923 164.747 165.086 163.689V24.7734C165.086 23.8783 164.557 23.39 163.499 23.3086C162.685 23.3086 162.197 23.7969 162.034 24.7734V163.689C162.034 164.503 162.522 165.032 163.499 165.276ZM212.693 181.512H195.97V105.34H193.04L189.256 81.7803L183.641 6.58496H200.73L203.66 81.9023H204.881L207.933 6.58496H225.022L219.285 81.7803L215.623 105.34H212.693V181.512ZM263.841 182H227.342V165.276L247.239 23.3086H227.342V6.58496H263.841V23.3086L243.943 165.276H263.841V182Z" fill="black"/>
<path opacity="0.12" d="M361.153 721.709C355.864 721.709 351.51 719.837 348.092 716.094C344.674 712.35 342.965 708.159 342.965 703.521V560.82C342.965 555.449 344.837 551.095 348.58 547.759C352.324 544.341 356.515 542.632 361.153 542.632C366.28 542.632 370.593 544.382 374.093 547.881C377.674 551.38 379.464 555.693 379.464 560.82V630.156H362.74V560.82C362.74 559.925 362.211 559.396 361.153 559.233C360.34 559.233 359.851 559.762 359.688 560.82V703.521C359.688 704.334 360.177 704.823 361.153 704.985C362.049 704.985 362.577 704.497 362.74 703.521V634.062H379.464V703.521C379.464 708.81 377.592 713.164 373.849 716.582C370.105 720 365.873 721.709 361.153 721.709ZM400.704 721.709C395.414 721.709 391.061 719.837 387.643 716.094C384.225 712.35 382.516 708.159 382.516 703.521V560.82C382.516 555.449 384.387 551.095 388.131 547.759C391.874 544.341 396.065 542.632 400.704 542.632C405.831 542.632 410.144 544.382 413.644 547.881C416.085 550.322 417.59 552.804 418.16 555.327C418.73 557.85 419.015 561.105 419.015 565.093V703.521C419.015 708.81 417.143 713.164 413.399 716.582C409.656 720 405.424 721.709 400.704 721.709ZM400.704 703.276C401.599 703.276 402.128 702.747 402.291 701.689V562.773C402.291 561.878 401.762 561.39 400.704 561.309C399.89 561.309 399.402 561.797 399.239 562.773V701.689C399.239 702.503 399.728 703.032 400.704 703.276ZM440.499 720H422.066V544.585H440.621C445.667 544.585 449.858 546.375 453.194 549.956C456.775 553.455 458.565 557.728 458.565 562.773V701.689C458.565 707.061 456.734 711.414 453.072 714.751C449.492 718.088 445.3 719.837 440.499 720ZM440.377 703.276C441.272 703.276 441.801 702.747 441.964 701.689V562.773C441.964 561.878 441.435 561.349 440.377 561.187H438.79V703.276H440.377ZM505.562 720H487.13L486.031 669.097H480.416L479.317 720H460.885L469.552 544.585H497.018L505.562 720ZM485.665 653.716L484.078 579.619H482.491L480.782 653.716H485.665ZM526.314 719.878H507.76V544.585H526.07C530.709 544.585 534.9 546.335 538.644 549.834C542.387 553.252 544.259 557.565 544.259 562.773V618.56C544.259 618.966 544.137 619.78 543.893 621.001C543.73 622.222 543.16 623.483 542.184 624.785C540.149 626.82 538.359 627.959 536.812 628.203V628.691C538.603 628.854 540.597 630.156 542.794 632.598C543.364 633.574 543.73 634.51 543.893 635.405C544.137 636.219 544.259 636.951 544.259 637.603V701.689C544.259 706.328 542.59 710.519 539.254 714.263C535.917 718.006 531.604 719.878 526.314 719.878ZM526.07 703.276C526.965 703.276 527.494 702.747 527.657 701.689V638.335C527.657 637.603 527.25 637.114 526.437 636.87H524.483V703.276H526.07ZM526.437 620.024C527.25 619.78 527.657 619.292 527.657 618.56V562.773C527.657 561.878 527.128 561.349 526.07 561.187H524.483V620.024H526.437ZM565.499 721.709C560.209 721.709 555.855 719.837 552.438 716.094C549.02 712.35 547.311 708.159 547.311 703.521V560.82C547.311 555.449 549.182 551.095 552.926 547.759C556.669 544.341 560.86 542.632 565.499 542.632C570.626 542.632 574.939 544.382 578.438 547.881C580.88 550.322 582.385 552.804 582.955 555.327C583.525 557.85 583.81 561.105 583.81 565.093V703.521C583.81 708.81 581.938 713.164 578.194 716.582C574.451 720 570.219 721.709 565.499 721.709ZM565.499 703.276C566.394 703.276 566.923 702.747 567.086 701.689V562.773C567.086 561.878 566.557 561.39 565.499 561.309C564.685 561.309 564.197 561.797 564.034 562.773V701.689C564.034 702.503 564.522 703.032 565.499 703.276ZM614.693 719.512H597.97V643.34H595.04L591.256 619.78L585.641 544.585H602.73L605.66 619.902H606.881L609.933 544.585H627.022L621.285 619.78L617.623 643.34H614.693V719.512ZM665.841 720H629.342V703.276L649.239 561.309H629.342V544.585H665.841V561.309L645.943 703.276H665.841V720Z" fill="black"/>
<path opacity="0.12" d="M296.153 544.709C290.864 544.709 286.51 542.837 283.092 539.094C279.674 535.35 277.965 531.159 277.965 526.521V383.82C277.965 378.449 279.837 374.095 283.58 370.759C287.324 367.341 291.515 365.632 296.153 365.632C301.28 365.632 305.593 367.382 309.093 370.881C312.674 374.38 314.464 378.693 314.464 383.82V453.156H297.74V383.82C297.74 382.925 297.211 382.396 296.153 382.233C295.34 382.233 294.851 382.762 294.688 383.82V526.521C294.688 527.334 295.177 527.823 296.153 527.985C297.049 527.985 297.577 527.497 297.74 526.521V457.062H314.464V526.521C314.464 531.81 312.592 536.164 308.849 539.582C305.105 543 300.873 544.709 296.153 544.709ZM335.704 544.709C330.414 544.709 326.061 542.837 322.643 539.094C319.225 535.35 317.516 531.159 317.516 526.521V383.82C317.516 378.449 319.387 374.095 323.131 370.759C326.874 367.341 331.065 365.632 335.704 365.632C340.831 365.632 345.144 367.382 348.644 370.881C351.085 373.322 352.59 375.804 353.16 378.327C353.73 380.85 354.015 384.105 354.015 388.093V526.521C354.015 531.81 352.143 536.164 348.399 539.582C344.656 543 340.424 544.709 335.704 544.709ZM335.704 526.276C336.599 526.276 337.128 525.747 337.291 524.689V385.773C337.291 384.878 336.762 384.39 335.704 384.309C334.89 384.309 334.402 384.797 334.239 385.773V524.689C334.239 525.503 334.728 526.032 335.704 526.276ZM375.499 543H357.066V367.585H375.621C380.667 367.585 384.858 369.375 388.194 372.956C391.775 376.455 393.565 380.728 393.565 385.773V524.689C393.565 530.061 391.734 534.414 388.072 537.751C384.492 541.088 380.3 542.837 375.499 543ZM375.377 526.276C376.272 526.276 376.801 525.747 376.964 524.689V385.773C376.964 384.878 376.435 384.349 375.377 384.187H373.79V526.276H375.377ZM440.562 543H422.13L421.031 492.097H415.416L414.317 543H395.885L404.552 367.585H432.018L440.562 543ZM420.665 476.716L419.078 402.619H417.491L415.782 476.716H420.665ZM461.314 542.878H442.76V367.585H461.07C465.709 367.585 469.9 369.335 473.644 372.834C477.387 376.252 479.259 380.565 479.259 385.773V441.56C479.259 441.966 479.137 442.78 478.893 444.001C478.73 445.222 478.16 446.483 477.184 447.785C475.149 449.82 473.359 450.959 471.812 451.203V451.691C473.603 451.854 475.597 453.156 477.794 455.598C478.364 456.574 478.73 457.51 478.893 458.405C479.137 459.219 479.259 459.951 479.259 460.603V524.689C479.259 529.328 477.59 533.519 474.254 537.263C470.917 541.006 466.604 542.878 461.314 542.878ZM461.07 526.276C461.965 526.276 462.494 525.747 462.657 524.689V461.335C462.657 460.603 462.25 460.114 461.437 459.87H459.483V526.276H461.07ZM461.437 443.024C462.25 442.78 462.657 442.292 462.657 441.56V385.773C462.657 384.878 462.128 384.349 461.07 384.187H459.483V443.024H461.437ZM500.499 544.709C495.209 544.709 490.855 542.837 487.438 539.094C484.02 535.35 482.311 531.159 482.311 526.521V383.82C482.311 378.449 484.182 374.095 487.926 370.759C491.669 367.341 495.86 365.632 500.499 365.632C505.626 365.632 509.939 367.382 513.438 370.881C515.88 373.322 517.385 375.804 517.955 378.327C518.525 380.85 518.81 384.105 518.81 388.093V526.521C518.81 531.81 516.938 536.164 513.194 539.582C509.451 543 505.219 544.709 500.499 544.709ZM500.499 526.276C501.394 526.276 501.923 525.747 502.086 524.689V385.773C502.086 384.878 501.557 384.39 500.499 384.309C499.685 384.309 499.197 384.797 499.034 385.773V524.689C499.034 525.503 499.522 526.032 500.499 526.276ZM549.693 542.512H532.97V466.34H530.04L526.256 442.78L520.641 367.585H537.73L540.66 442.902H541.881L544.933 367.585H562.022L556.285 442.78L552.623 466.34H549.693V542.512ZM600.841 543H564.342V526.276L584.239 384.309H564.342V367.585H600.841V384.309L580.943 526.276H600.841V543Z" fill="black"/>
<path opacity="0.12" d="M361.153 363.709C355.864 363.709 351.51 361.837 348.092 358.094C344.674 354.35 342.965 350.159 342.965 345.521V202.82C342.965 197.449 344.837 193.095 348.58 189.759C352.324 186.341 356.515 184.632 361.153 184.632C366.28 184.632 370.593 186.382 374.093 189.881C377.674 193.38 379.464 197.693 379.464 202.82V272.156H362.74V202.82C362.74 201.925 362.211 201.396 361.153 201.233C360.34 201.233 359.851 201.762 359.688 202.82V345.521C359.688 346.334 360.177 346.823 361.153 346.985C362.049 346.985 362.577 346.497 362.74 345.521V276.062H379.464V345.521C379.464 350.81 377.592 355.164 373.849 358.582C370.105 362 365.873 363.709 361.153 363.709ZM400.704 363.709C395.414 363.709 391.061 361.837 387.643 358.094C384.225 354.35 382.516 350.159 382.516 345.521V202.82C382.516 197.449 384.387 193.095 388.131 189.759C391.874 186.341 396.065 184.632 400.704 184.632C405.831 184.632 410.144 186.382 413.644 189.881C416.085 192.322 417.59 194.804 418.16 197.327C418.73 199.85 419.015 203.105 419.015 207.093V345.521C419.015 350.81 417.143 355.164 413.399 358.582C409.656 362 405.424 363.709 400.704 363.709ZM400.704 345.276C401.599 345.276 402.128 344.747 402.291 343.689V204.773C402.291 203.878 401.762 203.39 400.704 203.309C399.89 203.309 399.402 203.797 399.239 204.773V343.689C399.239 344.503 399.728 345.032 400.704 345.276ZM440.499 362H422.066V186.585H440.621C445.667 186.585 449.858 188.375 453.194 191.956C456.775 195.455 458.565 199.728 458.565 204.773V343.689C458.565 349.061 456.734 353.414 453.072 356.751C449.492 360.088 445.3 361.837 440.499 362ZM440.377 345.276C441.272 345.276 441.801 344.747 441.964 343.689V204.773C441.964 203.878 441.435 203.349 440.377 203.187H438.79V345.276H440.377ZM505.562 362H487.13L486.031 311.097H480.416L479.317 362H460.885L469.552 186.585H497.018L505.562 362ZM485.665 295.716L484.078 221.619H482.491L480.782 295.716H485.665ZM526.314 361.878H507.76V186.585H526.07C530.709 186.585 534.9 188.335 538.644 191.834C542.387 195.252 544.259 199.565 544.259 204.773V260.56C544.259 260.966 544.137 261.78 543.893 263.001C543.73 264.222 543.16 265.483 542.184 266.785C540.149 268.82 538.359 269.959 536.812 270.203V270.691C538.603 270.854 540.597 272.156 542.794 274.598C543.364 275.574 543.73 276.51 543.893 277.405C544.137 278.219 544.259 278.951 544.259 279.603V343.689C544.259 348.328 542.59 352.519 539.254 356.263C535.917 360.006 531.604 361.878 526.314 361.878ZM526.07 345.276C526.965 345.276 527.494 344.747 527.657 343.689V280.335C527.657 279.603 527.25 279.114 526.437 278.87H524.483V345.276H526.07ZM526.437 262.024C527.25 261.78 527.657 261.292 527.657 260.56V204.773C527.657 203.878 527.128 203.349 526.07 203.187H524.483V262.024H526.437ZM565.499 363.709C560.209 363.709 555.855 361.837 552.438 358.094C549.02 354.35 547.311 350.159 547.311 345.521V202.82C547.311 197.449 549.182 193.095 552.926 189.759C556.669 186.341 560.86 184.632 565.499 184.632C570.626 184.632 574.939 186.382 578.438 189.881C580.88 192.322 582.385 194.804 582.955 197.327C583.525 199.85 583.81 203.105 583.81 207.093V345.521C583.81 350.81 581.938 355.164 578.194 358.582C574.451 362 570.219 363.709 565.499 363.709ZM565.499 345.276C566.394 345.276 566.923 344.747 567.086 343.689V204.773C567.086 203.878 566.557 203.39 565.499 203.309C564.685 203.309 564.197 203.797 564.034 204.773V343.689C564.034 344.503 564.522 345.032 565.499 345.276ZM614.693 361.512H597.97V285.34H595.04L591.256 261.78L585.641 186.585H602.73L605.66 261.902H606.881L609.933 186.585H627.022L621.285 261.78L617.623 285.34H614.693V361.512ZM665.841 362H629.342V345.276L649.239 203.309H629.342V186.585H665.841V203.309L645.943 345.276H665.841V362Z" fill="black"/>
<path opacity="0.12" d="M296.153 183.709C290.864 183.709 286.51 181.837 283.092 178.094C279.674 174.35 277.965 170.159 277.965 165.521V22.8203C277.965 17.4492 279.837 13.0954 283.58 9.75879C287.324 6.34082 291.515 4.63184 296.153 4.63184C301.28 4.63184 305.593 6.38151 309.093 9.88086C312.674 13.3802 314.464 17.6934 314.464 22.8203V92.1562H297.74V22.8203C297.74 21.9251 297.211 21.3962 296.153 21.2334C295.34 21.2334 294.851 21.7624 294.688 22.8203V165.521C294.688 166.334 295.177 166.823 296.153 166.985C297.049 166.985 297.577 166.497 297.74 165.521V96.0625H314.464V165.521C314.464 170.81 312.592 175.164 308.849 178.582C305.105 182 300.873 183.709 296.153 183.709ZM335.704 183.709C330.414 183.709 326.061 181.837 322.643 178.094C319.225 174.35 317.516 170.159 317.516 165.521V22.8203C317.516 17.4492 319.387 13.0954 323.131 9.75879C326.874 6.34082 331.065 4.63184 335.704 4.63184C340.831 4.63184 345.144 6.38151 348.644 9.88086C351.085 12.3223 352.59 14.8044 353.16 17.3271C353.73 19.8499 354.015 23.1051 354.015 27.0928V165.521C354.015 170.81 352.143 175.164 348.399 178.582C344.656 182 340.424 183.709 335.704 183.709ZM335.704 165.276C336.599 165.276 337.128 164.747 337.291 163.689V24.7734C337.291 23.8783 336.762 23.39 335.704 23.3086C334.89 23.3086 334.402 23.7969 334.239 24.7734V163.689C334.239 164.503 334.728 165.032 335.704 165.276ZM375.499 182H357.066V6.58496H375.621C380.667 6.58496 384.858 8.37533 388.194 11.9561C391.775 15.4554 393.565 19.7279 393.565 24.7734V163.689C393.565 169.061 391.734 173.414 388.072 176.751C384.492 180.088 380.3 181.837 375.499 182ZM375.377 165.276C376.272 165.276 376.801 164.747 376.964 163.689V24.7734C376.964 23.8783 376.435 23.3493 375.377 23.1865H373.79V165.276H375.377ZM440.562 182H422.13L421.031 131.097H415.416L414.317 182H395.885L404.552 6.58496H432.018L440.562 182ZM420.665 115.716L419.078 41.6191H417.491L415.782 115.716H420.665ZM461.314 181.878H442.76V6.58496H461.07C465.709 6.58496 469.9 8.33464 473.644 11.834C477.387 15.252 479.259 19.5651 479.259 24.7734V80.5596C479.259 80.9665 479.137 81.7803 478.893 83.001C478.73 84.2217 478.16 85.4831 477.184 86.7852C475.149 88.8197 473.359 89.959 471.812 90.2031V90.6914C473.603 90.8542 475.597 92.1562 477.794 94.5977C478.364 95.5742 478.73 96.5101 478.893 97.4053C479.137 98.2191 479.259 98.9515 479.259 99.6025V163.689C479.259 168.328 477.59 172.519 474.254 176.263C470.917 180.006 466.604 181.878 461.314 181.878ZM461.07 165.276C461.965 165.276 462.494 164.747 462.657 163.689V100.335C462.657 99.6025 462.25 99.1143 461.437 98.8701H459.483V165.276H461.07ZM461.437 82.0244C462.25 81.7803 462.657 81.292 462.657 80.5596V24.7734C462.657 23.8783 462.128 23.3493 461.07 23.1865H459.483V82.0244H461.437ZM500.499 183.709C495.209 183.709 490.855 181.837 487.438 178.094C484.02 174.35 482.311 170.159 482.311 165.521V22.8203C482.311 17.4492 484.182 13.0954 487.926 9.75879C491.669 6.34082 495.86 4.63184 500.499 4.63184C505.626 4.63184 509.939 6.38151 513.438 9.88086C515.88 12.3223 517.385 14.8044 517.955 17.3271C518.525 19.8499 518.81 23.1051 518.81 27.0928V165.521C518.81 170.81 516.938 175.164 513.194 178.582C509.451 182 505.219 183.709 500.499 183.709ZM500.499 165.276C501.394 165.276 501.923 164.747 502.086 163.689V24.7734C502.086 23.8783 501.557 23.39 500.499 23.3086C499.685 23.3086 499.197 23.7969 499.034 24.7734V163.689C499.034 164.503 499.522 165.032 500.499 165.276ZM549.693 181.512H532.97V105.34H530.04L526.256 81.7803L520.641 6.58496H537.73L540.66 81.9023H541.881L544.933 6.58496H562.022L556.285 81.7803L552.623 105.34H549.693V181.512ZM600.841 182H564.342V165.276L584.239 23.3086H564.342V6.58496H600.841V23.3086L580.943 165.276H600.841V182Z" fill="black"/>
<path opacity="0.12" d="M698.153 721.709C692.864 721.709 688.51 719.837 685.092 716.094C681.674 712.35 679.965 708.159 679.965 703.521V560.82C679.965 555.449 681.837 551.095 685.58 547.759C689.324 544.341 693.515 542.632 698.153 542.632C703.28 542.632 707.593 544.382 711.093 547.881C714.674 551.38 716.464 555.693 716.464 560.82V630.156H699.74V560.82C699.74 559.925 699.211 559.396 698.153 559.233C697.34 559.233 696.851 559.762 696.688 560.82V703.521C696.688 704.334 697.177 704.823 698.153 704.985C699.049 704.985 699.577 704.497 699.74 703.521V634.062H716.464V703.521C716.464 708.81 714.592 713.164 710.849 716.582C707.105 720 702.873 721.709 698.153 721.709ZM737.704 721.709C732.414 721.709 728.061 719.837 724.643 716.094C721.225 712.35 719.516 708.159 719.516 703.521V560.82C719.516 555.449 721.387 551.095 725.131 547.759C728.874 544.341 733.065 542.632 737.704 542.632C742.831 542.632 747.144 544.382 750.644 547.881C753.085 550.322 754.59 552.804 755.16 555.327C755.73 557.85 756.015 561.105 756.015 565.093V703.521C756.015 708.81 754.143 713.164 750.399 716.582C746.656 720 742.424 721.709 737.704 721.709ZM737.704 703.276C738.599 703.276 739.128 702.747 739.291 701.689V562.773C739.291 561.878 738.762 561.39 737.704 561.309C736.89 561.309 736.402 561.797 736.239 562.773V701.689C736.239 702.503 736.728 703.032 737.704 703.276ZM777.499 720H759.066V544.585H777.621C782.667 544.585 786.858 546.375 790.194 549.956C793.775 553.455 795.565 557.728 795.565 562.773V701.689C795.565 707.061 793.734 711.414 790.072 714.751C786.492 718.088 782.3 719.837 777.499 720ZM777.377 703.276C778.272 703.276 778.801 702.747 778.964 701.689V562.773C778.964 561.878 778.435 561.349 777.377 561.187H775.79V703.276H777.377ZM842.562 720H824.13L823.031 669.097H817.416L816.317 720H797.885L806.552 544.585H834.018L842.562 720ZM822.665 653.716L821.078 579.619H819.491L817.782 653.716H822.665ZM863.314 719.878H844.76V544.585H863.07C867.709 544.585 871.9 546.335 875.644 549.834C879.387 553.252 881.259 557.565 881.259 562.773V618.56C881.259 618.966 881.137 619.78 880.893 621.001C880.73 622.222 880.16 623.483 879.184 624.785C877.149 626.82 875.359 627.959 873.812 628.203V628.691C875.603 628.854 877.597 630.156 879.794 632.598C880.364 633.574 880.73 634.51 880.893 635.405C881.137 636.219 881.259 636.951 881.259 637.603V701.689C881.259 706.328 879.59 710.519 876.254 714.263C872.917 718.006 868.604 719.878 863.314 719.878ZM863.07 703.276C863.965 703.276 864.494 702.747 864.657 701.689V638.335C864.657 637.603 864.25 637.114 863.437 636.87H861.483V703.276H863.07ZM863.437 620.024C864.25 619.78 864.657 619.292 864.657 618.56V562.773C864.657 561.878 864.128 561.349 863.07 561.187H861.483V620.024H863.437ZM902.499 721.709C897.209 721.709 892.855 719.837 889.438 716.094C886.02 712.35 884.311 708.159 884.311 703.521V560.82C884.311 555.449 886.182 551.095 889.926 547.759C893.669 544.341 897.86 542.632 902.499 542.632C907.626 542.632 911.939 544.382 915.438 547.881C917.88 550.322 919.385 552.804 919.955 555.327C920.525 557.85 920.81 561.105 920.81 565.093V703.521C920.81 708.81 918.938 713.164 915.194 716.582C911.451 720 907.219 721.709 902.499 721.709ZM902.499 703.276C903.394 703.276 903.923 702.747 904.086 701.689V562.773C904.086 561.878 903.557 561.39 902.499 561.309C901.685 561.309 901.197 561.797 901.034 562.773V701.689C901.034 702.503 901.522 703.032 902.499 703.276ZM951.693 719.512H934.97V643.34H932.04L928.256 619.78L922.641 544.585H939.73L942.66 619.902H943.881L946.933 544.585H964.022L958.285 619.78L954.623 643.34H951.693V719.512ZM1002.84 720H966.342V703.276L986.239 561.309H966.342V544.585H1002.84V561.309L982.943 703.276H1002.84V720Z" fill="black"/>
<path opacity="0.12" d="M633.153 544.709C627.864 544.709 623.51 542.837 620.092 539.094C616.674 535.35 614.965 531.159 614.965 526.521V383.82C614.965 378.449 616.837 374.095 620.58 370.759C624.324 367.341 628.515 365.632 633.153 365.632C638.28 365.632 642.593 367.382 646.093 370.881C649.674 374.38 651.464 378.693 651.464 383.82V453.156H634.74V383.82C634.74 382.925 634.211 382.396 633.153 382.233C632.34 382.233 631.851 382.762 631.688 383.82V526.521C631.688 527.334 632.177 527.823 633.153 527.985C634.049 527.985 634.577 527.497 634.74 526.521V457.062H651.464V526.521C651.464 531.81 649.592 536.164 645.849 539.582C642.105 543 637.873 544.709 633.153 544.709ZM672.704 544.709C667.414 544.709 663.061 542.837 659.643 539.094C656.225 535.35 654.516 531.159 654.516 526.521V383.82C654.516 378.449 656.387 374.095 660.131 370.759C663.874 367.341 668.065 365.632 672.704 365.632C677.831 365.632 682.144 367.382 685.644 370.881C688.085 373.322 689.59 375.804 690.16 378.327C690.73 380.85 691.015 384.105 691.015 388.093V526.521C691.015 531.81 689.143 536.164 685.399 539.582C681.656 543 677.424 544.709 672.704 544.709ZM672.704 526.276C673.599 526.276 674.128 525.747 674.291 524.689V385.773C674.291 384.878 673.762 384.39 672.704 384.309C671.89 384.309 671.402 384.797 671.239 385.773V524.689C671.239 525.503 671.728 526.032 672.704 526.276ZM712.499 543H694.066V367.585H712.621C717.667 367.585 721.858 369.375 725.194 372.956C728.775 376.455 730.565 380.728 730.565 385.773V524.689C730.565 530.061 728.734 534.414 725.072 537.751C721.492 541.088 717.3 542.837 712.499 543ZM712.377 526.276C713.272 526.276 713.801 525.747 713.964 524.689V385.773C713.964 384.878 713.435 384.349 712.377 384.187H710.79V526.276H712.377ZM777.562 543H759.13L758.031 492.097H752.416L751.317 543H732.885L741.552 367.585H769.018L777.562 543ZM757.665 476.716L756.078 402.619H754.491L752.782 476.716H757.665ZM798.314 542.878H779.76V367.585H798.07C802.709 367.585 806.9 369.335 810.644 372.834C814.387 376.252 816.259 380.565 816.259 385.773V441.56C816.259 441.966 816.137 442.78 815.893 444.001C815.73 445.222 815.16 446.483 814.184 447.785C812.149 449.82 810.359 450.959 808.812 451.203V451.691C810.603 451.854 812.597 453.156 814.794 455.598C815.364 456.574 815.73 457.51 815.893 458.405C816.137 459.219 816.259 459.951 816.259 460.603V524.689C816.259 529.328 814.59 533.519 811.254 537.263C807.917 541.006 803.604 542.878 798.314 542.878ZM798.07 526.276C798.965 526.276 799.494 525.747 799.657 524.689V461.335C799.657 460.603 799.25 460.114 798.437 459.87H796.483V526.276H798.07ZM798.437 443.024C799.25 442.78 799.657 442.292 799.657 441.56V385.773C799.657 384.878 799.128 384.349 798.07 384.187H796.483V443.024H798.437ZM837.499 544.709C832.209 544.709 827.855 542.837 824.438 539.094C821.02 535.35 819.311 531.159 819.311 526.521V383.82C819.311 378.449 821.182 374.095 824.926 370.759C828.669 367.341 832.86 365.632 837.499 365.632C842.626 365.632 846.939 367.382 850.438 370.881C852.88 373.322 854.385 375.804 854.955 378.327C855.525 380.85 855.81 384.105 855.81 388.093V526.521C855.81 531.81 853.938 536.164 850.194 539.582C846.451 543 842.219 544.709 837.499 544.709ZM837.499 526.276C838.394 526.276 838.923 525.747 839.086 524.689V385.773C839.086 384.878 838.557 384.39 837.499 384.309C836.685 384.309 836.197 384.797 836.034 385.773V524.689C836.034 525.503 836.522 526.032 837.499 526.276ZM886.693 542.512H869.97V466.34H867.04L863.256 442.78L857.641 367.585H874.73L877.66 442.902H878.881L881.933 367.585H899.022L893.285 442.78L889.623 466.34H886.693V542.512ZM937.841 543H901.342V526.276L921.239 384.309H901.342V367.585H937.841V384.309L917.943 526.276H937.841V543Z" fill="black"/>
<path opacity="0.12" d="M698.153 363.709C692.864 363.709 688.51 361.837 685.092 358.094C681.674 354.35 679.965 350.159 679.965 345.521V202.82C679.965 197.449 681.837 193.095 685.58 189.759C689.324 186.341 693.515 184.632 698.153 184.632C703.28 184.632 707.593 186.382 711.093 189.881C714.674 193.38 716.464 197.693 716.464 202.82V272.156H699.74V202.82C699.74 201.925 699.211 201.396 698.153 201.233C697.34 201.233 696.851 201.762 696.688 202.82V345.521C696.688 346.334 697.177 346.823 698.153 346.985C699.049 346.985 699.577 346.497 699.74 345.521V276.062H716.464V345.521C716.464 350.81 714.592 355.164 710.849 358.582C707.105 362 702.873 363.709 698.153 363.709ZM737.704 363.709C732.414 363.709 728.061 361.837 724.643 358.094C721.225 354.35 719.516 350.159 719.516 345.521V202.82C719.516 197.449 721.387 193.095 725.131 189.759C728.874 186.341 733.065 184.632 737.704 184.632C742.831 184.632 747.144 186.382 750.644 189.881C753.085 192.322 754.59 194.804 755.16 197.327C755.73 199.85 756.015 203.105 756.015 207.093V345.521C756.015 350.81 754.143 355.164 750.399 358.582C746.656 362 742.424 363.709 737.704 363.709ZM737.704 345.276C738.599 345.276 739.128 344.747 739.291 343.689V204.773C739.291 203.878 738.762 203.39 737.704 203.309C736.89 203.309 736.402 203.797 736.239 204.773V343.689C736.239 344.503 736.728 345.032 737.704 345.276ZM777.499 362H759.066V186.585H777.621C782.667 186.585 786.858 188.375 790.194 191.956C793.775 195.455 795.565 199.728 795.565 204.773V343.689C795.565 349.061 793.734 353.414 790.072 356.751C786.492 360.088 782.3 361.837 777.499 362ZM777.377 345.276C778.272 345.276 778.801 344.747 778.964 343.689V204.773C778.964 203.878 778.435 203.349 777.377 203.187H775.79V345.276H777.377ZM842.562 362H824.13L823.031 311.097H817.416L816.317 362H797.885L806.552 186.585H834.018L842.562 362ZM822.665 295.716L821.078 221.619H819.491L817.782 295.716H822.665ZM863.314 361.878H844.76V186.585H863.07C867.709 186.585 871.9 188.335 875.644 191.834C879.387 195.252 881.259 199.565 881.259 204.773V260.56C881.259 260.966 881.137 261.78 880.893 263.001C880.73 264.222 880.16 265.483 879.184 266.785C877.149 268.82 875.359 269.959 873.812 270.203V270.691C875.603 270.854 877.597 272.156 879.794 274.598C880.364 275.574 880.73 276.51 880.893 277.405C881.137 278.219 881.259 278.951 881.259 279.603V343.689C881.259 348.328 879.59 352.519 876.254 356.263C872.917 360.006 868.604 361.878 863.314 361.878ZM863.07 345.276C863.965 345.276 864.494 344.747 864.657 343.689V280.335C864.657 279.603 864.25 279.114 863.437 278.87H861.483V345.276H863.07ZM863.437 262.024C864.25 261.78 864.657 261.292 864.657 260.56V204.773C864.657 203.878 864.128 203.349 863.07 203.187H861.483V262.024H863.437ZM902.499 363.709C897.209 363.709 892.855 361.837 889.438 358.094C886.02 354.35 884.311 350.159 884.311 345.521V202.82C884.311 197.449 886.182 193.095 889.926 189.759C893.669 186.341 897.86 184.632 902.499 184.632C907.626 184.632 911.939 186.382 915.438 189.881C917.88 192.322 919.385 194.804 919.955 197.327C920.525 199.85 920.81 203.105 920.81 207.093V345.521C920.81 350.81 918.938 355.164 915.194 358.582C911.451 362 907.219 363.709 902.499 363.709ZM902.499 345.276C903.394 345.276 903.923 344.747 904.086 343.689V204.773C904.086 203.878 903.557 203.39 902.499 203.309C901.685 203.309 901.197 203.797 901.034 204.773V343.689C901.034 344.503 901.522 345.032 902.499 345.276ZM951.693 361.512H934.97V285.34H932.04L928.256 261.78L922.641 186.585H939.73L942.66 261.902H943.881L946.933 186.585H964.022L958.285 261.78L954.623 285.34H951.693V361.512ZM1002.84 362H966.342V345.276L986.239 203.309H966.342V186.585H1002.84V203.309L982.943 345.276H1002.84V362Z" fill="black"/>
<path opacity="0.12" d="M633.153 183.709C627.864 183.709 623.51 181.837 620.092 178.094C616.674 174.35 614.965 170.159 614.965 165.521V22.8203C614.965 17.4492 616.837 13.0954 620.58 9.75879C624.324 6.34082 628.515 4.63184 633.153 4.63184C638.28 4.63184 642.593 6.38151 646.093 9.88086C649.674 13.3802 651.464 17.6934 651.464 22.8203V92.1562H634.74V22.8203C634.74 21.9251 634.211 21.3962 633.153 21.2334C632.34 21.2334 631.851 21.7624 631.688 22.8203V165.521C631.688 166.334 632.177 166.823 633.153 166.985C634.049 166.985 634.577 166.497 634.74 165.521V96.0625H651.464V165.521C651.464 170.81 649.592 175.164 645.849 178.582C642.105 182 637.873 183.709 633.153 183.709ZM672.704 183.709C667.414 183.709 663.061 181.837 659.643 178.094C656.225 174.35 654.516 170.159 654.516 165.521V22.8203C654.516 17.4492 656.387 13.0954 660.131 9.75879C663.874 6.34082 668.065 4.63184 672.704 4.63184C677.831 4.63184 682.144 6.38151 685.644 9.88086C688.085 12.3223 689.59 14.8044 690.16 17.3271C690.73 19.8499 691.015 23.1051 691.015 27.0928V165.521C691.015 170.81 689.143 175.164 685.399 178.582C681.656 182 677.424 183.709 672.704 183.709ZM672.704 165.276C673.599 165.276 674.128 164.747 674.291 163.689V24.7734C674.291 23.8783 673.762 23.39 672.704 23.3086C671.89 23.3086 671.402 23.7969 671.239 24.7734V163.689C671.239 164.503 671.728 165.032 672.704 165.276ZM712.499 182H694.066V6.58496H712.621C717.667 6.58496 721.858 8.37533 725.194 11.9561C728.775 15.4554 730.565 19.7279 730.565 24.7734V163.689C730.565 169.061 728.734 173.414 725.072 176.751C721.492 180.088 717.3 181.837 712.499 182ZM712.377 165.276C713.272 165.276 713.801 164.747 713.964 163.689V24.7734C713.964 23.8783 713.435 23.3493 712.377 23.1865H710.79V165.276H712.377ZM777.562 182H759.13L758.031 131.097H752.416L751.317 182H732.885L741.552 6.58496H769.018L777.562 182ZM757.665 115.716L756.078 41.6191H754.491L752.782 115.716H757.665ZM798.314 181.878H779.76V6.58496H798.07C802.709 6.58496 806.9 8.33464 810.644 11.834C814.387 15.252 816.259 19.5651 816.259 24.7734V80.5596C816.259 80.9665 816.137 81.7803 815.893 83.001C815.73 84.2217 815.16 85.4831 814.184 86.7852C812.149 88.8197 810.359 89.959 808.812 90.2031V90.6914C810.603 90.8542 812.597 92.1562 814.794 94.5977C815.364 95.5742 815.73 96.5101 815.893 97.4053C816.137 98.2191 816.259 98.9515 816.259 99.6025V163.689C816.259 168.328 814.59 172.519 811.254 176.263C807.917 180.006 803.604 181.878 798.314 181.878ZM798.07 165.276C798.965 165.276 799.494 164.747 799.657 163.689V100.335C799.657 99.6025 799.25 99.1143 798.437 98.8701H796.483V165.276H798.07ZM798.437 82.0244C799.25 81.7803 799.657 81.292 799.657 80.5596V24.7734C799.657 23.8783 799.128 23.3493 798.07 23.1865H796.483V82.0244H798.437ZM837.499 183.709C832.209 183.709 827.855 181.837 824.438 178.094C821.02 174.35 819.311 170.159 819.311 165.521V22.8203C819.311 17.4492 821.182 13.0954 824.926 9.75879C828.669 6.34082 832.86 4.63184 837.499 4.63184C842.626 4.63184 846.939 6.38151 850.438 9.88086C852.88 12.3223 854.385 14.8044 854.955 17.3271C855.525 19.8499 855.81 23.1051 855.81 27.0928V165.521C855.81 170.81 853.938 175.164 850.194 178.582C846.451 182 842.219 183.709 837.499 183.709ZM837.499 165.276C838.394 165.276 838.923 164.747 839.086 163.689V24.7734C839.086 23.8783 838.557 23.39 837.499 23.3086C836.685 23.3086 836.197 23.7969 836.034 24.7734V163.689C836.034 164.503 836.522 165.032 837.499 165.276ZM886.693 181.512H869.97V105.34H867.04L863.256 81.7803L857.641 6.58496H874.73L877.66 81.9023H878.881L881.933 6.58496H899.022L893.285 81.7803L889.623 105.34H886.693V181.512ZM937.841 182H901.342V165.276L921.239 23.3086H901.342V6.58496H937.841V23.3086L917.943 165.276H937.841V182Z" fill="black"/>
<path opacity="0.12" d="M1035.15 721.709C1029.86 721.709 1025.51 719.837 1022.09 716.094C1018.67 712.35 1016.96 708.159 1016.96 703.521V560.82C1016.96 555.449 1018.84 551.095 1022.58 547.759C1026.32 544.341 1030.51 542.632 1035.15 542.632C1040.28 542.632 1044.59 544.382 1048.09 547.881C1051.67 551.38 1053.46 555.693 1053.46 560.82V630.156H1036.74V560.82C1036.74 559.925 1036.21 559.396 1035.15 559.233C1034.34 559.233 1033.85 559.762 1033.69 560.82V703.521C1033.69 704.334 1034.18 704.823 1035.15 704.985C1036.05 704.985 1036.58 704.497 1036.74 703.521V634.062H1053.46V703.521C1053.46 708.81 1051.59 713.164 1047.85 716.582C1044.11 720 1039.87 721.709 1035.15 721.709ZM1074.7 721.709C1069.41 721.709 1065.06 719.837 1061.64 716.094C1058.22 712.35 1056.52 708.159 1056.52 703.521V560.82C1056.52 555.449 1058.39 551.095 1062.13 547.759C1065.87 544.341 1070.07 542.632 1074.7 542.632C1079.83 542.632 1084.14 544.382 1087.64 547.881C1090.08 550.322 1091.59 552.804 1092.16 555.327C1092.73 557.85 1093.01 561.105 1093.01 565.093V703.521C1093.01 708.81 1091.14 713.164 1087.4 716.582C1083.66 720 1079.42 721.709 1074.7 721.709ZM1074.7 703.276C1075.6 703.276 1076.13 702.747 1076.29 701.689V562.773C1076.29 561.878 1075.76 561.39 1074.7 561.309C1073.89 561.309 1073.4 561.797 1073.24 562.773V701.689C1073.24 702.503 1073.73 703.032 1074.7 703.276ZM1114.5 720H1096.07V544.585H1114.62C1119.67 544.585 1123.86 546.375 1127.19 549.956C1130.78 553.455 1132.57 557.728 1132.57 562.773V701.689C1132.57 707.061 1130.73 711.414 1127.07 714.751C1123.49 718.088 1119.3 719.837 1114.5 720ZM1114.38 703.276C1115.27 703.276 1115.8 702.747 1115.96 701.689V562.773C1115.96 561.878 1115.43 561.349 1114.38 561.187H1112.79V703.276H1114.38ZM1179.56 720H1161.13L1160.03 669.097H1154.42L1153.32 720H1134.88L1143.55 544.585H1171.02L1179.56 720ZM1159.67 653.716L1158.08 579.619H1156.49L1154.78 653.716H1159.67ZM1200.31 719.878H1181.76V544.585H1200.07C1204.71 544.585 1208.9 546.335 1212.64 549.834C1216.39 553.252 1218.26 557.565 1218.26 562.773V618.56C1218.26 618.966 1218.14 619.78 1217.89 621.001C1217.73 622.222 1217.16 623.483 1216.18 624.785C1214.15 626.82 1212.36 627.959 1210.81 628.203V628.691C1212.6 628.854 1214.6 630.156 1216.79 632.598C1217.36 633.574 1217.73 634.51 1217.89 635.405C1218.14 636.219 1218.26 636.951 1218.26 637.603V701.689C1218.26 706.328 1216.59 710.519 1213.25 714.263C1209.92 718.006 1205.6 719.878 1200.31 719.878ZM1200.07 703.276C1200.97 703.276 1201.49 702.747 1201.66 701.689V638.335C1201.66 637.603 1201.25 637.114 1200.44 636.87H1198.48V703.276H1200.07ZM1200.44 620.024C1201.25 619.78 1201.66 619.292 1201.66 618.56V562.773C1201.66 561.878 1201.13 561.349 1200.07 561.187H1198.48V620.024H1200.44ZM1239.5 721.709C1234.21 721.709 1229.86 719.837 1226.44 716.094C1223.02 712.35 1221.31 708.159 1221.31 703.521V560.82C1221.31 555.449 1223.18 551.095 1226.93 547.759C1230.67 544.341 1234.86 542.632 1239.5 542.632C1244.63 542.632 1248.94 544.382 1252.44 547.881C1254.88 550.322 1256.39 552.804 1256.96 555.327C1257.52 557.85 1257.81 561.105 1257.81 565.093V703.521C1257.81 708.81 1255.94 713.164 1252.19 716.582C1248.45 720 1244.22 721.709 1239.5 721.709ZM1239.5 703.276C1240.39 703.276 1240.92 702.747 1241.09 701.689V562.773C1241.09 561.878 1240.56 561.39 1239.5 561.309C1238.69 561.309 1238.2 561.797 1238.03 562.773V701.689C1238.03 702.503 1238.52 703.032 1239.5 703.276ZM1288.69 719.512H1271.97V643.34H1269.04L1265.26 619.78L1259.64 544.585H1276.73L1279.66 619.902H1280.88L1283.93 544.585H1301.02L1295.29 619.78L1291.62 643.34H1288.69V719.512ZM1339.84 720H1303.34V703.276L1323.24 561.309H1303.34V544.585H1339.84V561.309L1319.94 703.276H1339.84V720Z" fill="black"/>
<path opacity="0.12" d="M970.153 544.709C964.864 544.709 960.51 542.837 957.092 539.094C953.674 535.35 951.965 531.159 951.965 526.521V383.82C951.965 378.449 953.837 374.095 957.58 370.759C961.324 367.341 965.515 365.632 970.153 365.632C975.28 365.632 979.593 367.382 983.093 370.881C986.674 374.38 988.464 378.693 988.464 383.82V453.156H971.74V383.82C971.74 382.925 971.211 382.396 970.153 382.233C969.34 382.233 968.851 382.762 968.688 383.82V526.521C968.688 527.334 969.177 527.823 970.153 527.985C971.049 527.985 971.577 527.497 971.74 526.521V457.062H988.464V526.521C988.464 531.81 986.592 536.164 982.849 539.582C979.105 543 974.873 544.709 970.153 544.709ZM1009.7 544.709C1004.41 544.709 1000.06 542.837 996.643 539.094C993.225 535.35 991.516 531.159 991.516 526.521V383.82C991.516 378.449 993.387 374.095 997.131 370.759C1000.87 367.341 1005.07 365.632 1009.7 365.632C1014.83 365.632 1019.14 367.382 1022.64 370.881C1025.08 373.322 1026.59 375.804 1027.16 378.327C1027.73 380.85 1028.01 384.105 1028.01 388.093V526.521C1028.01 531.81 1026.14 536.164 1022.4 539.582C1018.66 543 1014.42 544.709 1009.7 544.709ZM1009.7 526.276C1010.6 526.276 1011.13 525.747 1011.29 524.689V385.773C1011.29 384.878 1010.76 384.39 1009.7 384.309C1008.89 384.309 1008.4 384.797 1008.24 385.773V524.689C1008.24 525.503 1008.73 526.032 1009.7 526.276ZM1049.5 543H1031.07V367.585H1049.62C1054.67 367.585 1058.86 369.375 1062.19 372.956C1065.78 376.455 1067.57 380.728 1067.57 385.773V524.689C1067.57 530.061 1065.73 534.414 1062.07 537.751C1058.49 541.088 1054.3 542.837 1049.5 543ZM1049.38 526.276C1050.27 526.276 1050.8 525.747 1050.96 524.689V385.773C1050.96 384.878 1050.43 384.349 1049.38 384.187H1047.79V526.276H1049.38ZM1114.56 543H1096.13L1095.03 492.097H1089.42L1088.32 543H1069.88L1078.55 367.585H1106.02L1114.56 543ZM1094.67 476.716L1093.08 402.619H1091.49L1089.78 476.716H1094.67ZM1135.31 542.878H1116.76V367.585H1135.07C1139.71 367.585 1143.9 369.335 1147.64 372.834C1151.39 376.252 1153.26 380.565 1153.26 385.773V441.56C1153.26 441.966 1153.14 442.78 1152.89 444.001C1152.73 445.222 1152.16 446.483 1151.18 447.785C1149.15 449.82 1147.36 450.959 1145.81 451.203V451.691C1147.6 451.854 1149.6 453.156 1151.79 455.598C1152.36 456.574 1152.73 457.51 1152.89 458.405C1153.14 459.219 1153.26 459.951 1153.26 460.603V524.689C1153.26 529.328 1151.59 533.519 1148.25 537.263C1144.92 541.006 1140.6 542.878 1135.31 542.878ZM1135.07 526.276C1135.97 526.276 1136.49 525.747 1136.66 524.689V461.335C1136.66 460.603 1136.25 460.114 1135.44 459.87H1133.48V526.276H1135.07ZM1135.44 443.024C1136.25 442.78 1136.66 442.292 1136.66 441.56V385.773C1136.66 384.878 1136.13 384.349 1135.07 384.187H1133.48V443.024H1135.44ZM1174.5 544.709C1169.21 544.709 1164.86 542.837 1161.44 539.094C1158.02 535.35 1156.31 531.159 1156.31 526.521V383.82C1156.31 378.449 1158.18 374.095 1161.93 370.759C1165.67 367.341 1169.86 365.632 1174.5 365.632C1179.63 365.632 1183.94 367.382 1187.44 370.881C1189.88 373.322 1191.39 375.804 1191.96 378.327C1192.52 380.85 1192.81 384.105 1192.81 388.093V526.521C1192.81 531.81 1190.94 536.164 1187.19 539.582C1183.45 543 1179.22 544.709 1174.5 544.709ZM1174.5 526.276C1175.39 526.276 1175.92 525.747 1176.09 524.689V385.773C1176.09 384.878 1175.56 384.39 1174.5 384.309C1173.69 384.309 1173.2 384.797 1173.03 385.773V524.689C1173.03 525.503 1173.52 526.032 1174.5 526.276ZM1223.69 542.512H1206.97V466.34H1204.04L1200.26 442.78L1194.64 367.585H1211.73L1214.66 442.902H1215.88L1218.93 367.585H1236.02L1230.29 442.78L1226.62 466.34H1223.69V542.512ZM1274.84 543H1238.34V526.276L1258.24 384.309H1238.34V367.585H1274.84V384.309L1254.94 526.276H1274.84V543Z" fill="black"/>
<path opacity="0.12" d="M1035.15 363.709C1029.86 363.709 1025.51 361.837 1022.09 358.094C1018.67 354.35 1016.96 350.159 1016.96 345.521V202.82C1016.96 197.449 1018.84 193.095 1022.58 189.759C1026.32 186.341 1030.51 184.632 1035.15 184.632C1040.28 184.632 1044.59 186.382 1048.09 189.881C1051.67 193.38 1053.46 197.693 1053.46 202.82V272.156H1036.74V202.82C1036.74 201.925 1036.21 201.396 1035.15 201.233C1034.34 201.233 1033.85 201.762 1033.69 202.82V345.521C1033.69 346.334 1034.18 346.823 1035.15 346.985C1036.05 346.985 1036.58 346.497 1036.74 345.521V276.062H1053.46V345.521C1053.46 350.81 1051.59 355.164 1047.85 358.582C1044.11 362 1039.87 363.709 1035.15 363.709ZM1074.7 363.709C1069.41 363.709 1065.06 361.837 1061.64 358.094C1058.22 354.35 1056.52 350.159 1056.52 345.521V202.82C1056.52 197.449 1058.39 193.095 1062.13 189.759C1065.87 186.341 1070.07 184.632 1074.7 184.632C1079.83 184.632 1084.14 186.382 1087.64 189.881C1090.08 192.322 1091.59 194.804 1092.16 197.327C1092.73 199.85 1093.01 203.105 1093.01 207.093V345.521C1093.01 350.81 1091.14 355.164 1087.4 358.582C1083.66 362 1079.42 363.709 1074.7 363.709ZM1074.7 345.276C1075.6 345.276 1076.13 344.747 1076.29 343.689V204.773C1076.29 203.878 1075.76 203.39 1074.7 203.309C1073.89 203.309 1073.4 203.797 1073.24 204.773V343.689C1073.24 344.503 1073.73 345.032 1074.7 345.276ZM1114.5 362H1096.07V186.585H1114.62C1119.67 186.585 1123.86 188.375 1127.19 191.956C1130.78 195.455 1132.57 199.728 1132.57 204.773V343.689C1132.57 349.061 1130.73 353.414 1127.07 356.751C1123.49 360.088 1119.3 361.837 1114.5 362ZM1114.38 345.276C1115.27 345.276 1115.8 344.747 1115.96 343.689V204.773C1115.96 203.878 1115.43 203.349 1114.38 203.187H1112.79V345.276H1114.38ZM1179.56 362H1161.13L1160.03 311.097H1154.42L1153.32 362H1134.88L1143.55 186.585H1171.02L1179.56 362ZM1159.67 295.716L1158.08 221.619H1156.49L1154.78 295.716H1159.67ZM1200.31 361.878H1181.76V186.585H1200.07C1204.71 186.585 1208.9 188.335 1212.64 191.834C1216.39 195.252 1218.26 199.565 1218.26 204.773V260.56C1218.26 260.966 1218.14 261.78 1217.89 263.001C1217.73 264.222 1217.16 265.483 1216.18 266.785C1214.15 268.82 1212.36 269.959 1210.81 270.203V270.691C1212.6 270.854 1214.6 272.156 1216.79 274.598C1217.36 275.574 1217.73 276.51 1217.89 277.405C1218.14 278.219 1218.26 278.951 1218.26 279.603V343.689C1218.26 348.328 1216.59 352.519 1213.25 356.263C1209.92 360.006 1205.6 361.878 1200.31 361.878ZM1200.07 345.276C1200.97 345.276 1201.49 344.747 1201.66 343.689V280.335C1201.66 279.603 1201.25 279.114 1200.44 278.87H1198.48V345.276H1200.07ZM1200.44 262.024C1201.25 261.78 1201.66 261.292 1201.66 260.56V204.773C1201.66 203.878 1201.13 203.349 1200.07 203.187H1198.48V262.024H1200.44ZM1239.5 363.709C1234.21 363.709 1229.86 361.837 1226.44 358.094C1223.02 354.35 1221.31 350.159 1221.31 345.521V202.82C1221.31 197.449 1223.18 193.095 1226.93 189.759C1230.67 186.341 1234.86 184.632 1239.5 184.632C1244.63 184.632 1248.94 186.382 1252.44 189.881C1254.88 192.322 1256.39 194.804 1256.96 197.327C1257.52 199.85 1257.81 203.105 1257.81 207.093V345.521C1257.81 350.81 1255.94 355.164 1252.19 358.582C1248.45 362 1244.22 363.709 1239.5 363.709ZM1239.5 345.276C1240.39 345.276 1240.92 344.747 1241.09 343.689V204.773C1241.09 203.878 1240.56 203.39 1239.5 203.309C1238.69 203.309 1238.2 203.797 1238.03 204.773V343.689C1238.03 344.503 1238.52 345.032 1239.5 345.276ZM1288.69 361.512H1271.97V285.34H1269.04L1265.26 261.78L1259.64 186.585H1276.73L1279.66 261.902H1280.88L1283.93 186.585H1301.02L1295.29 261.78L1291.62 285.34H1288.69V361.512ZM1339.84 362H1303.34V345.276L1323.24 203.309H1303.34V186.585H1339.84V203.309L1319.94 345.276H1339.84V362Z" fill="black"/>
<path opacity="0.12" d="M970.153 183.709C964.864 183.709 960.51 181.837 957.092 178.094C953.674 174.35 951.965 170.159 951.965 165.521V22.8203C951.965 17.4492 953.837 13.0954 957.58 9.75879C961.324 6.34082 965.515 4.63184 970.153 4.63184C975.28 4.63184 979.593 6.38151 983.093 9.88086C986.674 13.3802 988.464 17.6934 988.464 22.8203V92.1562H971.74V22.8203C971.74 21.9251 971.211 21.3962 970.153 21.2334C969.34 21.2334 968.851 21.7624 968.688 22.8203V165.521C968.688 166.334 969.177 166.823 970.153 166.985C971.049 166.985 971.577 166.497 971.74 165.521V96.0625H988.464V165.521C988.464 170.81 986.592 175.164 982.849 178.582C979.105 182 974.873 183.709 970.153 183.709ZM1009.7 183.709C1004.41 183.709 1000.06 181.837 996.643 178.094C993.225 174.35 991.516 170.159 991.516 165.521V22.8203C991.516 17.4492 993.387 13.0954 997.131 9.75879C1000.87 6.34082 1005.07 4.63184 1009.7 4.63184C1014.83 4.63184 1019.14 6.38151 1022.64 9.88086C1025.08 12.3223 1026.59 14.8044 1027.16 17.3271C1027.73 19.8499 1028.01 23.1051 1028.01 27.0928V165.521C1028.01 170.81 1026.14 175.164 1022.4 178.582C1018.66 182 1014.42 183.709 1009.7 183.709ZM1009.7 165.276C1010.6 165.276 1011.13 164.747 1011.29 163.689V24.7734C1011.29 23.8783 1010.76 23.39 1009.7 23.3086C1008.89 23.3086 1008.4 23.7969 1008.24 24.7734V163.689C1008.24 164.503 1008.73 165.032 1009.7 165.276ZM1049.5 182H1031.07V6.58496H1049.62C1054.67 6.58496 1058.86 8.37533 1062.19 11.9561C1065.78 15.4554 1067.57 19.7279 1067.57 24.7734V163.689C1067.57 169.061 1065.73 173.414 1062.07 176.751C1058.49 180.088 1054.3 181.837 1049.5 182ZM1049.38 165.276C1050.27 165.276 1050.8 164.747 1050.96 163.689V24.7734C1050.96 23.8783 1050.43 23.3493 1049.38 23.1865H1047.79V165.276H1049.38ZM1114.56 182H1096.13L1095.03 131.097H1089.42L1088.32 182H1069.88L1078.55 6.58496H1106.02L1114.56 182ZM1094.67 115.716L1093.08 41.6191H1091.49L1089.78 115.716H1094.67ZM1135.31 181.878H1116.76V6.58496H1135.07C1139.71 6.58496 1143.9 8.33464 1147.64 11.834C1151.39 15.252 1153.26 19.5651 1153.26 24.7734V80.5596C1153.26 80.9665 1153.14 81.7803 1152.89 83.001C1152.73 84.2217 1152.16 85.4831 1151.18 86.7852C1149.15 88.8197 1147.36 89.959 1145.81 90.2031V90.6914C1147.6 90.8542 1149.6 92.1562 1151.79 94.5977C1152.36 95.5742 1152.73 96.5101 1152.89 97.4053C1153.14 98.2191 1153.26 98.9515 1153.26 99.6025V163.689C1153.26 168.328 1151.59 172.519 1148.25 176.263C1144.92 180.006 1140.6 181.878 1135.31 181.878ZM1135.07 165.276C1135.97 165.276 1136.49 164.747 1136.66 163.689V100.335C1136.66 99.6025 1136.25 99.1143 1135.44 98.8701H1133.48V165.276H1135.07ZM1135.44 82.0244C1136.25 81.7803 1136.66 81.292 1136.66 80.5596V24.7734C1136.66 23.8783 1136.13 23.3493 1135.07 23.1865H1133.48V82.0244H1135.44ZM1174.5 183.709C1169.21 183.709 1164.86 181.837 1161.44 178.094C1158.02 174.35 1156.31 170.159 1156.31 165.521V22.8203C1156.31 17.4492 1158.18 13.0954 1161.93 9.75879C1165.67 6.34082 1169.86 4.63184 1174.5 4.63184C1179.63 4.63184 1183.94 6.38151 1187.44 9.88086C1189.88 12.3223 1191.39 14.8044 1191.96 17.3271C1192.52 19.8499 1192.81 23.1051 1192.81 27.0928V165.521C1192.81 170.81 1190.94 175.164 1187.19 178.582C1183.45 182 1179.22 183.709 1174.5 183.709ZM1174.5 165.276C1175.39 165.276 1175.92 164.747 1176.09 163.689V24.7734C1176.09 23.8783 1175.56 23.39 1174.5 23.3086C1173.69 23.3086 1173.2 23.7969 1173.03 24.7734V163.689C1173.03 164.503 1173.52 165.032 1174.5 165.276ZM1223.69 181.512H1206.97V105.34H1204.04L1200.26 81.7803L1194.64 6.58496H1211.73L1214.66 81.9023H1215.88L1218.93 6.58496H1236.02L1230.29 81.7803L1226.62 105.34H1223.69V181.512ZM1274.84 182H1238.34V165.276L1258.24 23.3086H1238.34V6.58496H1274.84V23.3086L1254.94 165.276H1274.84V182Z" fill="black"/>
</g>
<defs>
<filter id="filter0_d_200_110" x="0.5" y="0" width="1278" height="728" filterUnits="userSpaceOnUse" color-interpolation-filters="sRGB">
<feFlood flood-opacity="0" result="BackgroundImageFix"/>
<feColorMatrix in="SourceAlpha" type="matrix" values="0 0 0 0 0 0 0 0 0 0 0 0 0 0 0 0 0 0 127 0" result="hardAlpha"/>
<feOffset dy="4"/>
<feGaussianBlur stdDeviation="2"/>
<feComposite in2="hardAlpha" operator="out"/>
<feColorMatrix type="matrix" values="0 0 0 0 0 0 0 0 0 0 0 0 0 0 0 0 0 0 0.25 0"/>
<feBlend mode="normal" in2="BackgroundImageFix" result="effect1_dropShadow_200_110"/>
<feBlend mode="normal" in="SourceGraphic" in2="effect1_dropShadow_200_110" result="shape"/>
</filter>
<linearGradient id="paint0_linear_200_110" x1="0" y1="360" x2="1270" y2="360" gradientUnits="userSpaceOnUse">
<stop stop-color="#5F00EC"/>
<stop offset="0.451923" stop-color="#910AF6"/>
<stop offset="0.875" stop-color="#C315FF"/>
</linearGradient>
<clipPath id="clip0_200_110">
<rect width="1270" height="720" fill="white" transform="translate(4.5)"/>
</clipPath>
</defs>
</svg>
